<?xml version="1.0" encoding="UTF-8" standalone="no"?>
<svg
   xmlns:dc="http://purl.org/dc/elements/1.1/"
   xmlns:cc="http://creativecommons.org/ns#"
   xmlns:rdf="http://www.w3.org/1999/02/22-rdf-syntax-ns#"
   xmlns:svg="http://www.w3.org/2000/svg"
   xmlns="http://www.w3.org/2000/svg"
   version="1.1"
   id="svg2"
   xml:space="preserve"
   width="224.79759"
   height="181.6848"
   viewBox="0 0 224.79759 181.6848"><metadata
     id="metadata8"><rdf:RDF><cc:Work
         rdf:about=""><dc:format>image/svg+xml</dc:format><dc:type
           rdf:resource="http://purl.org/dc/dcmitype/StillImage" /><dc:title></dc:title></cc:Work></rdf:RDF></metadata><defs
     id="defs6"><clipPath
       clipPathUnits="userSpaceOnUse"
       id="clipPath18"><path
         d="M 0,202 H 236 V 0 H 0 Z"
         id="path16" /></clipPath></defs><g
     id="g10"
     transform="matrix(1.3333333,0,0,-1.3333333,-44.934532,225.50919)"><g
       id="g12"><g
         id="g14"
         clip-path="url(#clipPath18)"><g
           id="g20"
           transform="translate(187.8311,152.6343)"><path
             d="m 0,0 h -82.683 c 0.009,-1.29 0.047,-2.579 0.055,-3.868 H 0 c 5.854,0 10.6,-4.113 10.6,-9.186 v -58.481 h -74.829 l -0.578,-0.012 c -4.731,-5.029 -11.443,-8.174 -18.873,-8.174 -7.445,0 -14.166,3.155 -18.898,8.2 l -0.443,-0.014 h -27.721 v 15.633 h -3.867 v -50.811 c 0,-7.197 6.49,-13.053 14.468,-13.053 H 0 c 7.978,0 14.468,5.856 14.468,13.053 v 93.659 C 14.468,-5.856 7.978,0 0,0"
             style="fill:#073367;fill-opacity:1;fill-rule:nonzero;stroke:none"
             id="path22" /></g><g
           id="g24"
           transform="translate(188.8115,102.9434)"><path
             d="m 0,0 0.006,4.478 -11.029,0.006 -0.016,-16.494 11.168,-0.012 0.003,4.477 -5.351,0.004 0.001,1.732 4.73,-0.004 0.004,4.221 -4.733,0.004 0.004,1.593 z"
             style="fill:#1f3057;fill-opacity:1;fill-rule:nonzero;stroke:none"
             id="path26" /></g><g
           id="g28"
           transform="translate(170.23,90.9409)"><path
             d="m 0,0 6.292,16.491 -6.299,0.006 -1.851,-6.113 C -2.159,9.393 -2.51,8.149 -2.718,6.625 h -0.114 c -0.161,1.773 -0.553,3.022 -0.805,3.9 l -1.747,5.977 -6.416,0.007 6.283,-16.504 z"
             style="fill:#1f3057;fill-opacity:1;fill-rule:nonzero;stroke:none"
             id="path30" /></g><g
           id="g32"
           transform="translate(150.7637,96.96)"><path
             d="m 0,0 0.512,1.868 c 0.23,0.878 0.577,2.031 0.671,3.623 H 1.298 C 1.391,3.9 1.735,2.745 1.963,1.868 L 2.469,0 Z m -1.975,10.5 -5.899,-16.49 6.371,-0.008 0.51,2.076 4.475,-0.002 0.529,-2.077 6.368,-0.006 -5.753,16.501 z"
             style="fill:#1f3057;fill-opacity:1;fill-rule:nonzero;stroke:none"
             id="path34" /></g><g
           id="g36"
           transform="translate(95.894,102.4668)"><path
             d="M 0,0 2.973,4.767 H 16.022 L 9.061,-6.312 h 6.962 l -3.078,-4.921 H -0.294 L 6.869,0 Z m 8.265,-19.242 c 8.623,0 15.61,6.987 15.61,15.612 0,8.621 -6.987,15.608 -15.61,15.608 -8.621,0 -15.61,-6.987 -15.61,-15.608 0,-8.625 6.989,-15.612 15.61,-15.612"
             style="fill:#1f3057;fill-opacity:1;fill-rule:nonzero;stroke:none"
             id="path38" /></g><g
           id="g40"
           transform="translate(137.4365,100.2051)"><path
             d="m 0,0 c -0.115,-0.711 -0.32,-1.777 -0.371,-3.25 h -0.134 c -0.049,1.291 -0.278,2.213 -0.392,2.813 l -1.562,7.706 -4.177,0.003 -1.578,-7.703 c -0.115,-0.6 -0.344,-1.52 -0.393,-2.814 l -0.14,10e-4 C -8.792,-1.771 -9,-0.705 -9.113,0.008 l -1.285,7.268 -5.953,0.007 4.81,-16.501 5.165,-0.006 1.253,5.63 c 0.161,0.74 0.394,1.613 0.461,2.721 h 0.21 c 0.067,-1.108 0.298,-1.981 0.46,-2.723 l 1.24,-5.63 L 2.415,-9.231 7.254,7.261 1.3,7.266 Z"
             style="fill:#1f3057;fill-opacity:1;fill-rule:nonzero;stroke:none"
             id="path42" /></g><g
           id="g44"
           transform="translate(103.1929,132.6133)"><path
             d="M 0,0 V 5.268 C -20.911,4.756 -37.793,-12.255 -38.09,-33.217 h 5.268 C -32.526,-15.161 -18.006,-0.509 0,0"
             style="fill:#1f3057;fill-opacity:1;fill-rule:nonzero;stroke:none"
             id="path46" /></g><g
           id="g48"
           transform="translate(103.1929,122.2007)"><path
             d="M 0,0 V 5.261 C -15.167,4.754 -27.381,-7.585 -27.675,-22.805 h 5.269 C -22.115,-10.49 -12.264,-0.501 0,0"
             style="fill:#1f3057;fill-opacity:1;fill-rule:nonzero;stroke:none"
             id="path50" /></g><g
           id="g52"
           transform="translate(104.0039,163.8359)"><path
             d="M 0,0 V 5.296 C -38.313,4.684 -69.384,-26.2 -70.303,-64.44 h 5.296 C -64.091,-29.12 -35.394,-0.61 0,0"
             style="fill:#1f3057;fill-opacity:1;fill-rule:nonzero;stroke:none"
             id="path54" /></g><g
           id="g56"
           transform="translate(103.2876,153.6138)"><path
             d="m 0,0 v 5.232 c -0.032,0 -0.063,-0.003 -0.095,-0.004 -32.37,-0.666 -58.534,-27.004 -58.904,-59.446 h 2.527 2.705 C -53.396,-24.63 -29.529,-0.616 0,0"
             style="fill:#1f3057;fill-opacity:1;fill-rule:nonzero;stroke:none"
             id="path58" /></g><g
           id="g60"
           transform="translate(103.7104,147.9907)"><path
             d="m 0,0 c -0.174,-0.001 -0.345,-0.013 -0.518,-0.016 -26.557,-0.395 -48.064,-21.986 -48.31,-48.579 h 1.14 3.816 C -43.625,-24.561 -24.064,-5.074 0,-4.956 Z"
             style="fill:#1f3057;fill-opacity:1;fill-rule:nonzero;stroke:none"
             id="path62" /></g><g
           id="g64"
           transform="translate(73.7954,55.2158)"><path
             d="m 0,0 h 1.885 c 2.088,0 3.132,0.909 3.132,2.726 0,1.817 -1.044,2.726 -3.132,2.726 H 0 Z m 0,-11.832 h -5.684 v 21.866 h 9.048 c 2.455,0 4.335,-0.638 5.64,-1.914 1.306,-1.276 1.958,-3.074 1.958,-5.394 0,-2.32 -0.652,-4.118 -1.958,-5.394 C 7.699,-3.944 5.819,-4.582 3.364,-4.582 H 0 Z"
             style="fill:#ffffff;fill-opacity:1;fill-rule:nonzero;stroke:none"
             id="path66" /></g><g
           id="g68"
           transform="translate(93.457,65.25)"><path
             d="m 0,0 v -17.052 h 6.815 v -4.814 H -5.684 V 0 Z"
             style="fill:#ffffff;fill-opacity:1;fill-rule:nonzero;stroke:none"
             id="path70" /></g><g
           id="g72"
           transform="translate(108.4795,65.25)"><path
             d="m 0,0 v -11.89 c 0,-0.638 0.024,-1.291 0.072,-1.958 0.049,-0.667 0.194,-1.271 0.435,-1.812 0.242,-0.542 0.624,-0.982 1.146,-1.319 0.522,-0.339 1.256,-0.508 2.204,-0.508 0.947,0 1.677,0.169 2.189,0.508 0.513,0.337 0.894,0.777 1.146,1.319 0.251,0.541 0.401,1.145 0.45,1.812 0.047,0.667 0.072,1.32 0.072,1.958 V 0 h 5.655 v -12.673 c 0,-3.403 -0.779,-5.887 -2.335,-7.453 -1.556,-1.566 -3.949,-2.349 -7.177,-2.349 -3.229,0 -5.626,0.783 -7.192,2.349 -1.566,1.566 -2.349,4.05 -2.349,7.453 V 0 Z"
             style="fill:#ffffff;fill-opacity:1;fill-rule:nonzero;stroke:none"
             id="path74" /></g><g
           id="g76"
           transform="translate(138.4355,59.6528)"><path
             d="m 0,0 c -0.619,0.502 -1.237,0.875 -1.856,1.117 -0.619,0.241 -1.218,0.362 -1.798,0.362 -0.735,0 -1.334,-0.174 -1.798,-0.522 -0.464,-0.348 -0.696,-0.803 -0.696,-1.363 0,-0.387 0.116,-0.706 0.348,-0.957 0.232,-0.252 0.537,-0.469 0.914,-0.653 0.377,-0.184 0.802,-0.343 1.276,-0.478 0.473,-0.135 0.942,-0.28 1.406,-0.435 1.856,-0.619 3.214,-1.446 4.075,-2.48 0.859,-1.034 1.29,-2.383 1.29,-4.045 0,-1.122 -0.188,-2.136 -0.565,-3.045 -0.377,-0.909 -0.929,-1.687 -1.654,-2.334 -0.724,-0.648 -1.614,-1.151 -2.668,-1.508 -1.053,-0.358 -2.247,-0.537 -3.581,-0.537 -2.765,0 -5.326,0.821 -7.685,2.465 l 2.436,4.582 c 0.85,-0.754 1.692,-1.315 2.523,-1.682 0.831,-0.367 1.653,-0.551 2.465,-0.551 0.928,0 1.619,0.212 2.074,0.638 0.453,0.425 0.681,0.908 0.681,1.45 0,0.329 -0.058,0.614 -0.174,0.855 -0.116,0.242 -0.309,0.464 -0.58,0.667 -0.271,0.204 -0.623,0.392 -1.058,0.566 -0.436,0.174 -0.962,0.367 -1.581,0.58 -0.735,0.232 -1.455,0.488 -2.16,0.768 -0.706,0.281 -1.334,0.653 -1.885,1.117 -0.551,0.464 -0.997,1.048 -1.334,1.755 -0.339,0.705 -0.508,1.599 -0.508,2.682 0,1.083 0.178,2.064 0.537,2.944 0.357,0.879 0.86,1.633 1.508,2.261 0.647,0.629 1.44,1.117 2.378,1.465 0.937,0.348 1.986,0.522 3.146,0.522 1.083,0 2.213,-0.15 3.393,-0.45 1.179,-0.299 2.31,-0.739 3.393,-1.319 z"
             style="fill:#ffffff;fill-opacity:1;fill-rule:nonzero;stroke:none"
             id="path78" /></g><g
           id="g80"
           transform="translate(160.708,65.25)"><path
             d="m 0,0 v -17.052 h 6.815 v -4.814 H -5.684 V 0 Z"
             style="fill:#ffffff;fill-opacity:1;fill-rule:nonzero;stroke:none"
             id="path82" /></g><g
           id="g84"
           transform="translate(176.1357,55.4766)"><path
             d="m 0,0 h 1.073 c 1.121,0 1.981,0.232 2.581,0.696 0.599,0.464 0.899,1.131 0.899,2.001 0,0.87 -0.3,1.537 -0.899,2.001 -0.6,0.464 -1.46,0.696 -2.581,0.696 H 0 Z M 12.499,-12.093 H 5.423 L 0,-3.683 v -8.41 H -5.684 V 9.773 h 8.845 c 1.218,0 2.281,-0.179 3.19,-0.536 C 7.259,8.879 8.008,8.391 8.599,7.772 9.188,7.153 9.632,6.438 9.933,5.626 10.232,4.814 10.382,3.944 10.382,3.016 10.382,1.353 9.98,0.005 9.178,-1.029 8.376,-2.064 7.192,-2.765 5.626,-3.132 Z"
             style="fill:#ffffff;fill-opacity:1;fill-rule:nonzero;stroke:none"
             id="path86" /></g></g></g></g></svg>